<?xml version="1.0" encoding="utf-8"?>
<!-- Generator: Adobe Illustrator 27.9.0, SVG Export Plug-In . SVG Version: 6.00 Build 0)  -->
<svg version="1.1" id="vector" xmlns="http://www.w3.org/2000/svg" xmlns:xlink="http://www.w3.org/1999/xlink" x="0px" y="0px"
	 viewBox="0 0 368.2 344" enable-background="new 0 0 368.2 344" xml:space="preserve">
<linearGradient id="bg_00000128455484711925368980000005363647174059311546_" gradientUnits="userSpaceOnUse" x1="-113.5117" y1="616.6758" x2="-113.3583" y2="616.6758" gradientTransform="matrix(1.360719e-13 2222.2222 2222.2222 -1.360719e-13 -1370205.5 252251.2188)">
	<stop  offset="0" style="stop-color:#C1DAFF"/>
	<stop  offset="1" style="stop-color:#E9F0FA"/>
</linearGradient>
<path id="bg" fill="url(#bg_00000128455484711925368980000005363647174059311546_)" d="M101.4,3h167.5c54.1,0,98,45.5,98,101.6
	v137.8c0,56.1-43.9,101.6-98,101.6H101.4c-54.1,0-98-45.5-98-101.6V104.6C3.4,48.5,47.3,3,101.4,3z"/>
<g id="ocho">
	<g>
		<g>
			<path fill-opacity="0" d="M182.7,194.9c-48.9-48.9-73.3-97.8,0-97.8S231.6,146,182.7,194.9s-73.3,97.8,0,97.8
				S231.6,243.8,182.7,194.9L182.7,194.9z"/>
			
				<path opacity="0.1" fill="none" stroke="#000000" stroke-width="6.6111" stroke-linecap="round" stroke-linejoin="round" stroke-miterlimit="22.2222" enable-background="new    " d="
				M182.7,194.9c-48.9-48.9-73.3-97.8,0-97.8S231.6,146,182.7,194.9s-73.3,97.8,0,97.8S231.6,243.8,182.7,194.9L182.7,194.9z"/>
		</g>
		<g>
			<path fill-opacity="0" d="M182.7,194.9c-48.9-48.9-73.3-97.8,0-97.8S231.6,146,182.7,194.9s-73.3,97.8,0,97.8
				S231.6,243.8,182.7,194.9L182.7,194.9z"/>
			
				<linearGradient id="SVGID_1_" gradientUnits="userSpaceOnUse" x1="-112.4843" y1="618.0893" x2="-111.4843" y2="618.0893" gradientTransform="matrix(5.668019e-15 195.5556 92.5658 -1.197433e-14 -57031.2461 22094.0918)">
				<stop  offset="0" style="stop-color:#157FF2"/>
				<stop  offset="1" style="stop-color:#0C50CC"/>
			</linearGradient>
			
				<path fill="none" stroke="url(#SVGID_1_)" stroke-width="31.7778" stroke-linecap="round" stroke-linejoin="round" stroke-miterlimit="22.2222" d="
				M182.7,194.9c-48.9-48.9-73.3-97.8,0-97.8S231.6,146,182.7,194.9s-73.3,97.8,0,97.8S231.6,243.8,182.7,194.9L182.7,194.9z"/>
		</g>
	</g>
</g>
<g id="Hat">
	<path id="path_2" d="M167.1,66c0,0,62.2-51.7,92.2-33.3c13.9,8.3,13.9,28.9,24.4,87.2c2.2,12.8-20.6-10.6-25-19.4
		c0,0-1.7,27.2-6.1,28.3C244.3,131.6,158.8,74.4,167.1,66z"/>
	<path id="path_3" fill="#FF0000" d="M171.6,65.5c0,0,60-47.8,86.1-31.1c13.9,8.3,11.7,23.3,25,83.9c2.8,12.2-20-15-24.4-23.3
		c0,0-1.7,30.6-6.7,32.2C242.7,128.8,162.1,74.4,171.6,65.5L171.6,65.5z"/>
	<path id="path_4" d="M262.1,101c-4.4-8.3-5-13.9-6.1-30.6c0,0,1.7,26.7,1.7,32.2c0,6.1,1.1-5,2.2-4.4
		C259.9,98.8,262.1,101.6,262.1,101L262.1,101z"/>
	<path id="path_5" fill="#BA0808" d="M255.4,71c0,0,12.8,40,22.2,45c0,0-1.1,1.1-1.7,1.1c-0.6,0.6-12.2-8.3-16.7-21.7
		C257.1,89.4,256,76.6,255.4,71L255.4,71z"/>
	<path id="path_6" d="M250.4,70.5c0,0,5,7.8,6.1,27.2C257.7,104.9,258.2,81,250.4,70.5z"/>
	<path id="path_7" d="M253.8,135.5c0.6-2.2,1.1-3.9-1.1-11.1c-3.3-5.6-6.7-8.9-9.4-11.1c-1.1-1.1,5.6,1.7,4.4,1.1
		c-10.6-11.7-24.4-17.8-24.4-17.8l6.1-0.6c-7.2-6.7-22.8-15-30.6-17.8l6.7-0.6c-10-6.7-23.3-11.1-31.7-11.7c-1.1,0,1.1-1.7,1.1-1.7
		l-5.6-1.1c-6.1-0.6-9.4,0.6-11.7,6.7l-4.4,10c-1.7,2.8,0.6,7.8,6.1,7.8c0,0,11.7,3.3,41.7,22.8c28.9,18.9,35,32.8,35,32.8
		c3.9,5.6,7.8,3.9,11.7-1.1L253.8,135.5L253.8,135.5z"/>
	<path id="path_8" fill="#FFFFFF" d="M241,145.5c-1.1-0.6-1.7-0.6-2.8-2.2c-0.6-1.1-1.7-4.4-8.3-11.1c-0.6-0.6,2.2,0.6,2.2,0.6
		c-4.4-2.8-13.3-11.1-18.9-15.6c-1.7-1.1,3.9,1.1,2.8,0c-1.1-1.7-11.1-6.1-12.8-7.8c-8.3-5-21.7-12.2-25-17.8
		c-0.6-1.1,1.7,3.3,0.6,2.8c-6.1-3.3-11.1-5.6-13.3-6.7c-2.8-0.6-3.3-3.3-3.3-2.8c0,2.2,0,1.7,0,1.7l0,0c-1.1,0-1.7-0.6-1.7-0.6
		c-1.7-1.1-2.2-1.7-2.8-3.3V81l0,0l4.4-10c2.2-4.4,6.1-6.1,12.8-5l-2.8,1.1c7.8,0,12.8-0.6,28.3,7.8c-0.6,0-4.4,1.7-4.4,1.7
		s14.4,5.6,31.7,17.2c-0.6,0.6-4.4,1.1-4.4,1.1s7.2,4.4,8.3,5c5,2.2,10,7.2,13.9,11.1c-1.7-0.6-3.3,0-3.3,0l2.8,2.8
		c3.3,3.3,12.2,13.3,9.4,20l-5,8.3C243.8,147.2,241.6,146,241,145.5L241,145.5z"/>
	<path id="path_9" fill="#E5E5E5" d="M246,144.9c-2.8,2.2-4.4,1.7-4.4,1.1l0,0c-1.1-0.6-1.7-0.6-2.2-2.2c-0.6-1.1-1.7-4.4-8.3-11.1
		c-0.6-0.6,2.2,0.6,2.2,0.6c-4.4-2.8-13.3-11.1-18.9-15.6c-1.7-1.1,3.9,1.1,2.8,0c-1.7-1.1-11.1-6.1-12.8-7.8
		c-8.3-5-21.7-12.2-25-17.8c-0.6-1.1,1.7,3.3,0.6,2.8c-6.1-3.3-11.1-5.6-13.3-6.7c-2.8-0.6-3.3-3.3-3.3-2.8c0,2.2,0,1.7,0,1.7l0,0
		c-1.1,0-1.7-0.6-1.7-0.6c-1.7-1.1-2.2-1.7-2.8-3.3v-1.7l0,0l4.4-10c1.1-3.3,3.3-5,7.2-5.6c-1.1,0.6-4.4,1.7-5,5l-4.4,7.2l0,0V81
		c0.6,2.2,2.2,2.2,3.3,2.8c0.6,0.6,1.7,0.6,1.7,0.6l0,0c0,0,0.6,0.6,0-1.7c0-0.6,0.6,2.2,3.3,2.8c2.8,0.6,7.2,3.3,13.3,6.7
		c1.1,0.6-1.1-3.3-0.6-2.8c3.9,6.1,17.2,12.8,25,17.8c1.7,1.1,11.7,7.8,13.3,8.9c1.7,0.6-3.3-0.6-2.8,0.6
		c5.6,4.4,14.4,10.6,18.3,13.9c0,0-2.8-0.6-2.8,0c6.7,7.2,8.3,9.4,8.9,10c1.1,1.1,1.1,1.7,2.2,2.2l0,0
		C244.9,144.4,245.4,144.9,246,144.9L246,144.9z"/>
	<path id="path_10" d="M271,135.5c-0.6-2.2-7.2-12.2,1.1-21.1c2.2-2.8,6.7-5.6,9.4-6.1c0.6,0-3.3,3.9-1.1,3.3
		c5.6-1.7,13.9-1.7,17.8,2.2c0.6,0.6-3.9,0.6-4.4,1.1c0.6,0.6,6.1,6.7,5,14.4c0,0-0.6-2.2-2.2-0.6c-1.1,0.6,0,4.4-3.9,11.1
		c-1.7,3.3-7.2,7.2-10.6,6.1c0,0,1.7-2.8,0.6-2.8c-8.3-0.6-15-5-15-6.7C267.7,136.6,271,137.2,271,135.5L271,135.5z"/>
	<path id="path_11" fill="#FFFFFF" d="M271,137.7c0.6,0,1.1,0,1.1-1.1c0-1.7-7.2-10.6,0.6-20.6c1.1-1.1,4.4-3.3,3.9-3.3
		c-0.6,1.1-1.1,3.3,0.6,2.2c4.4-2.8,12.2-3.3,15.6-1.7c0,0-1.7,0-1.7,1.1s5.6,4.4,6.7,12.8c-1.1-1.7-2.2-0.6-2.8,0
		c-0.6,2.8-0.6,6.1-3.3,10.6c-1.7,2.8-5,5.6-6.7,6.1c0-0.6,1.1-2.2,0.6-3.9c0-0.6-0.6,0.6-2.2,0.6C276,142.2,271,137.7,271,137.7
		L271,137.7z"/>
	<path id="path_12" fill="#E5E5E5" d="M293.2,134.9c-0.6,1.1-0.6,1.7-1.7,2.8c-1.1,2.8-4.4,6.7-6.7,6.1c0-0.6,0.6-2.8,1.1-3.9
		c0,0-0.6,0.6-2.8,0.6c-6.7,1.1-11.7-3.3-11.7-3.3c0.6,0,1.1,0,1.1-1.1c0-1.7-6.7-10,0-19.4c-3.3,8.3,1.7,15,2.2,16.1
		c0,1.1-0.6,1.1-1.1,1.1c0,0.6,5,5.6,11.7,3.3c1.7-0.6,2.2-1.1,2.2-0.6c0.6,1.1-0.6,3.3-0.6,3.9C288.2,141,291.6,137.7,293.2,134.9
		L293.2,134.9L293.2,134.9z"/>
</g>
</svg>
