<svg version="1.1" id="vector" xmlns="http://www.w3.org/2000/svg" xmlns:xlink="http://www.w3.org/1999/xlink" x="0px" y="0px"
	 viewBox="0 0 356 356" xml:space="preserve">
<linearGradient id="circle_gradient" gradientUnits="userSpaceOnUse" x1="-571.3395" y1="620.8787" x2="-571.0639" y2="620.8787" gradientTransform="matrix(1.360719e-13 2222.2222 2222.2222 -1.360719e-13 -1379552.625 1269520)">
	<stop  offset="0" style="stop-color:#0095D4"/>
	<stop  offset="1" style="stop-color:#0C50CC"/>
</linearGradient>
<circle id="bg" fill="url(#circle_gradient)" cx="177.7" cy="177.5" r="175.6"/>
<path id="Ocho" fill-opacity="0" stroke="#FFFFFF" stroke-width="32" stroke-miterlimit="10" d="M176.5,198.9
	c-48.9-48.9-73.3-97.8,0-97.8S225.4,150,176.5,198.9s-73.3,97.8,0,97.8S225.4,247.8,176.5,198.9L176.5,198.9z"/>
<g id="Hat">
	<path id="path_2" d="M160.9,70c0,0,62.2-51.7,92.2-33.3C267,45,267,65.6,277.5,123.9c2.2,12.8-20.6-10.6-25-19.4
		c0,0-1.7,27.2-6.1,28.3C238.1,135.6,152.6,78.4,160.9,70z"/>
	<path id="path_3" fill="#FF0000" d="M165.4,69.5c0,0,60-47.8,86.1-31.1c13.9,8.3,11.7,23.3,25,83.9c2.8,12.2-20-15-24.4-23.3
		c0,0-1.7,30.6-6.7,32.2C236.5,132.8,155.9,78.4,165.4,69.5L165.4,69.5z"/>
	<path id="path_4" d="M255.9,105c-4.4-8.3-5-13.9-6.1-30.6c0,0,1.7,26.7,1.7,32.2c0,6.1,1.1-5,2.2-4.4
		C253.7,102.8,255.9,105.6,255.9,105L255.9,105z"/>
	<path id="path_5" fill="#BA0808" d="M249.2,75c0,0,12.8,40,22.2,45c0,0-1.1,1.1-1.7,1.1c-0.6,0.6-12.2-8.3-16.7-21.7
		C250.9,93.4,249.8,80.6,249.2,75L249.2,75z"/>
	<path id="path_6" d="M244.2,74.5c0,0,5,7.8,6.1,27.2C251.5,108.9,252,85,244.2,74.5z"/>
	<path id="path_7" d="M247.6,139.5c0.6-2.2,1.1-3.9-1.1-11.1c-3.3-5.6-6.7-8.9-9.4-11.1c-1.1-1.1,5.6,1.7,4.4,1.1
		c-10.6-11.7-24.4-17.8-24.4-17.8l6.1-0.6c-7.2-6.7-22.8-15-30.6-17.8l6.7-0.6c-10-6.7-23.3-11.1-31.7-11.7c-1.1,0,1.1-1.7,1.1-1.7
		l-5.6-1.1c-6.1-0.6-9.4,0.6-11.7,6.7l-4.4,10c-1.7,2.8,0.6,7.8,6.1,7.8c0,0,11.7,3.3,41.7,22.8c28.9,18.9,35,32.8,35,32.8
		c3.9,5.6,7.8,3.9,11.7-1.1L247.6,139.5L247.6,139.5z"/>
	<path id="path_8" fill="#FFFFFF" d="M234.8,149.5c-1.1-0.6-1.7-0.6-2.8-2.2c-0.6-1.1-1.7-4.4-8.3-11.1c-0.6-0.6,2.2,0.6,2.2,0.6
		c-4.4-2.8-13.3-11.1-18.9-15.6c-1.7-1.1,3.9,1.1,2.8,0c-1.1-1.7-11.1-6.1-12.8-7.8c-8.3-5-21.7-12.2-25-17.8
		c-0.6-1.1,1.7,3.3,0.6,2.8c-6.1-3.3-11.1-5.6-13.3-6.7c-2.8-0.6-3.3-3.3-3.3-2.8c0,2.2,0,1.7,0,1.7l0,0c-1.1,0-1.7-0.6-1.7-0.6
		c-1.7-1.1-2.2-1.7-2.8-3.3V85l0,0l4.4-10c2.2-4.4,6.1-6.1,12.8-5l-2.8,1.1c7.8,0,12.8-0.6,28.3,7.8c-0.6,0-4.4,1.7-4.4,1.7
		s14.4,5.6,31.7,17.2c-0.6,0.6-4.4,1.1-4.4,1.1s7.2,4.4,8.3,5c5,2.2,10,7.2,13.9,11.1c-1.7-0.6-3.3,0-3.3,0l2.8,2.8
		c3.3,3.3,12.2,13.3,9.4,20l-5,8.3C237.6,151.2,235.4,150,234.8,149.5L234.8,149.5z"/>
	<path id="path_9" fill="#E5E5E5" d="M239.8,148.9c-2.8,2.2-4.4,1.7-4.4,1.1l0,0c-1.1-0.6-1.7-0.6-2.2-2.2
		c-0.6-1.1-1.7-4.4-8.3-11.1c-0.6-0.6,2.2,0.6,2.2,0.6c-4.4-2.8-13.3-11.1-18.9-15.6c-1.7-1.1,3.9,1.1,2.8,0
		c-1.7-1.1-11.1-6.1-12.8-7.8c-8.3-5-21.7-12.2-25-17.8c-0.6-1.1,1.7,3.3,0.6,2.8c-6.1-3.3-11.1-5.6-13.3-6.7
		c-2.8-0.6-3.3-3.3-3.3-2.8c0,2.2,0,1.7,0,1.7l0,0c-1.1,0-1.7-0.6-1.7-0.6c-1.7-1.1-2.2-1.7-2.8-3.3v-1.7l0,0l4.4-10
		c1.1-3.3,3.3-5,7.2-5.6c-1.1,0.6-4.4,1.7-5,5l-4.4,7.2l0,0V85c0.6,2.2,2.2,2.2,3.3,2.8c0.6,0.6,1.7,0.6,1.7,0.6l0,0
		c0,0,0.6,0.6,0-1.7c0-0.6,0.6,2.2,3.3,2.8c2.8,0.6,7.2,3.3,13.3,6.7c1.1,0.6-1.1-3.3-0.6-2.8c3.9,6.1,17.2,12.8,25,17.8
		c1.7,1.1,11.7,7.8,13.3,8.9c1.7,0.6-3.3-0.6-2.8,0.6c5.6,4.4,14.4,10.6,18.3,13.9c0,0-2.8-0.6-2.8,0c6.7,7.2,8.3,9.4,8.9,10
		c1.1,1.1,1.1,1.7,2.2,2.2l0,0C238.7,148.4,239.2,148.9,239.8,148.9L239.8,148.9z"/>
	<path id="path_10" d="M264.8,139.5c-0.6-2.2-7.2-12.2,1.1-21.1c2.2-2.8,6.7-5.6,9.4-6.1c0.6,0-3.3,3.9-1.1,3.3
		c5.6-1.7,13.9-1.7,17.8,2.2c0.6,0.6-3.9,0.6-4.4,1.1c0.6,0.6,6.1,6.7,5,14.4c0,0-0.6-2.2-2.2-0.6c-1.1,0.6,0,4.4-3.9,11.1
		c-1.7,3.3-7.2,7.2-10.6,6.1c0,0,1.7-2.8,0.6-2.8c-8.3-0.6-15-5-15-6.7C261.5,140.6,264.8,141.2,264.8,139.5L264.8,139.5z"/>
	<path id="path_11" fill="#FFFFFF" d="M264.8,141.7c0.6,0,1.1,0,1.1-1.1c0-1.7-7.2-10.6,0.6-20.6c1.1-1.1,4.4-3.3,3.9-3.3
		c-0.6,1.1-1.1,3.3,0.6,2.2c4.4-2.8,12.2-3.3,15.6-1.7c0,0-1.7,0-1.7,1.1s5.6,4.4,6.7,12.8c-1.1-1.7-2.2-0.6-2.8,0
		c-0.6,2.8-0.6,6.1-3.3,10.6c-1.7,2.8-5,5.6-6.7,6.1c0-0.6,1.1-2.2,0.6-3.9c0-0.6-0.6,0.6-2.2,0.6
		C269.8,146.2,264.8,141.7,264.8,141.7L264.8,141.7z"/>
	<path id="path_12" fill="#E5E5E5" d="M287,138.9c-0.6,1.1-0.6,1.7-1.7,2.8c-1.1,2.8-4.4,6.7-6.7,6.1c0-0.6,0.6-2.8,1.1-3.9
		c0,0-0.6,0.6-2.8,0.6c-6.7,1.1-11.7-3.3-11.7-3.3c0.6,0,1.1,0,1.1-1.1c0-1.7-6.7-10,0-19.4c-3.3,8.3,1.7,15,2.2,16.1
		c0,1.1-0.6,1.1-1.1,1.1c0,0.6,5,5.6,11.7,3.3c1.7-0.6,2.2-1.1,2.2-0.6c0.6,1.1-0.6,3.3-0.6,3.9C282,145,285.4,141.7,287,138.9
		L287,138.9L287,138.9z"/>
</g>
</svg>
