<svg width="23.333333333333332" height="46.666666666666664" viewBox="0 0 100 100" fill="none" aria-label="OchoApp logo"><defs><linearGradient id="logoGradient" x1="50" y1="0" x2="50" y2="100" gradientUnits="userSpaceOnUse"><stop offset="0" stop-color="#157ff2"></stop><stop offset="1" stop-color="#0c50cc"></stop></linearGradient></defs><path d="M50,50 C30,30 20,10 50,10 C80,10 70,30 50,50 C30,70 20,90 50,90 C80,90 70,70 50,50 Z" fill="none" stroke-width="8" stroke-linecap="round" stroke-linejoin="round" transform="translate(0,2)"></path><path d="M50,50 C30,30 20,10 50,10 C80,10 70,30 50,50 C30,70 20,90 50,90 C80,90 70,70 50,50 Z" fill="none" stroke="url(#logoGradient)" stroke-width="14" stroke-linecap="round" stroke-linejoin="round"></path></svg>